<?xml version="1.0" encoding="utf-8"?><svg version="1.1" id="Layer_1" xmlns="http://www.w3.org/2000/svg" xmlns:xlink="http://www.w3.org/1999/xlink" x="0px" y="0px" viewBox="0 0 102.55 122.88" style="enable-background:new 0 0 102.55 122.88" xml:space="preserve"><style type="text/css">.st0{fill-rule:evenodd;clip-rule:evenodd;}</style><g><path class="st0" d="M102.55,122.88H0V0h77.66l24.89,26.43V122.88L102.55,122.88z M19.36,42.93h41.87c1.9,0,3.46,1.55,3.46,3.45 v12.8l21.95-11.18v36.39L64.69,72.07v16.18c0,1.9-1.56,3.46-3.46,3.46H19.36c-1.9,0-3.46-1.55-3.46-3.46V46.38 C15.91,44.48,17.46,42.93,19.36,42.93L19.36,42.93z M37.22,55.43v23.78l11.89-11.89L37.22,55.43L37.22,55.43z M96.13,115.98V30.44 H72.49V5.91H6.51v110.07H96.13L96.13,115.98z" fill="#DC143C"/></g></svg>