<?xml version="1.0" standalone="no"?><!DOCTYPE svg PUBLIC "-//W3C//DTD SVG 1.1//EN" "http://www.w3.org/Graphics/SVG/1.1/DTD/svg11.dtd"><svg class="icon" height="512" viewBox="0 0 1024 1024" version="1.1" xmlns="http://www.w3.org/2000/svg"><path d="M961.860754 663.935388c0-15.927761-12.911054-28.835745-28.835745-28.835745-7.865131 0-14.991436 3.151783-20.193925 8.256034l-0.181125-0.205685L757.633397 798.167578l-89.391936-89.388866-0.502443 0.64059c-5.160533-3.945869-11.606339-6.29538-18.60473-6.29538-16.939811 0-30.667463 13.731746-30.667463 30.667463 0 9.831926 4.630461 18.575054 11.82328 24.186865l105.498776 105.499799c0.097214 0.100284 0.188288 0.202615 0.286526 0.301875 0.098237 0.098237 0.201591 0.189312 0.300852 0.286526l1.766226 1.766226 0.097214-0.12382c9.626241 7.680936 23.497157 7.427156 32.847106-0.757247l0 0c0.428765-0.375553 0.851391-0.76134 1.260713-1.170662 0.361227-0.361227 0.706081-0.732687 1.040702-1.110287l177.588651-175.942151-0.122797-0.13917C957.553659 681.307034 961.860754 673.126724 961.860754 663.935388zM644.4895 642.956587c6.627954 8.229428 16.780175 13.499455 28.16855 13.499455 19.968797 0 35.900651-16.189727 36.156478-36.156478 0.14224-11.085476-4.491291-21.593807-14.790868-31.343869l-0.01842 0.010233c-37.237089-33.94409-81.428567-60.400648-130.200364-76.960813 72.126714-41.514509 120.685663-119.331829 120.685663-208.484312 0-132.790352-107.715257-240.424768-240.58645-240.424768-132.868123 0-240.58338 107.634416-240.58338 240.424768 0 89.387843 48.815799 167.376055 121.255645 208.8087C193.191001 557.336558 95.173616 674.14696 77.402881 815.892265l-0.01228 0c0 22.991644 18.638499 41.629119 41.629119 41.629119 22.991644 0 39.333844-18.638499 39.333844-41.629119l0.00921 0c21.076014-140.788513 142.583392-248.76676 289.338804-248.76676 75.735915 0 144.747685 28.760021 196.700941 75.945693C644.432195 643.033335 644.461871 642.995473 644.4895 642.956587zM447.672926 466.417849c-94.630241 0-171.347506-76.736709-171.347506-171.391509 0-94.66401 76.717266-171.391509 171.347506-171.391509s171.347506 76.726475 171.347506 171.391509C619.020432 389.68114 542.303166 466.417849 447.672926 466.417849z" /></svg>