<svg width="746" height="746" viewBox="0 0 746 746" fill="none" xmlns="http://www.w3.org/2000/svg">
<circle cx="373" cy="373" r="373" fill="#009688"/>
<path d="M227.016 572.972C200.5 572.972 176.945 568.178 156.348 558.589C135.751 549.001 119.475 535.803 107.52 518.994C95.6828 502.186 89.5275 482.891 89.054 461.111H174.281C174.991 474.487 180.437 485.259 190.616 493.426C200.796 501.475 212.929 505.5 227.016 505.5C238.024 505.5 247.79 503.073 256.312 498.22C264.835 493.367 271.523 486.561 276.376 477.801C281.23 468.923 283.597 458.743 283.479 447.261C283.597 435.543 281.17 425.304 276.199 416.544C271.346 407.785 264.598 400.978 255.957 396.125C247.435 391.153 237.61 388.668 226.483 388.668C215.948 388.549 205.946 390.857 196.476 395.592C187.125 400.327 180.022 406.778 175.169 414.946L97.5767 400.386L113.379 204.364H346.689V275.209H185.645L177.3 360.969H179.43C185.467 350.907 195.174 342.621 208.55 336.111C222.044 329.482 237.373 326.168 254.537 326.168C276.317 326.168 295.73 331.258 312.776 341.438C329.939 351.499 343.434 365.467 353.259 383.341C363.202 401.215 368.173 421.693 368.173 444.776C368.173 469.752 362.255 491.887 350.418 511.182C338.699 530.476 322.245 545.628 301.057 556.636C279.987 567.527 255.306 572.972 227.016 572.972ZM417.135 568V204.364H665.359V275.741H505.025V350.315H649.556V421.871H505.025V568H417.135Z" fill="#C4C4C4"/>
<rect x="178" y="116" width="116" height="8" fill="#009688"/>
</svg>
