<svg width="900" height="500" viewBox="0 0 900 500" fill="none" xmlns="http://www.w3.org/2000/svg">
<rect width="900" height="500" fill="#009688"/>
<path d="M369.008 454.486C355.75 454.486 343.972 452.089 333.674 447.295C323.376 442.501 315.238 435.902 309.26 427.497C303.341 419.093 300.264 409.446 300.027 398.555H342.641C342.996 405.243 345.718 410.629 350.808 414.713C355.898 418.738 361.965 420.75 369.008 420.75C374.512 420.75 379.395 419.537 383.656 417.11C387.918 414.683 391.262 411.28 393.688 406.901C396.115 402.462 397.299 397.372 397.239 391.631C397.299 385.771 396.085 380.652 393.599 376.272C391.173 371.892 387.799 368.489 383.479 366.062C379.217 363.577 374.305 362.334 368.741 362.334C363.474 362.275 358.473 363.429 353.738 365.796C349.062 368.164 345.511 371.389 343.085 375.473L304.288 368.193L312.19 270.182H428.844V305.604H348.322L344.15 348.484H345.215C348.234 343.454 353.087 339.311 359.775 336.055C366.522 332.741 374.187 331.084 382.768 331.084C393.659 331.084 403.365 333.629 411.888 338.719C420.47 343.75 427.217 350.733 432.129 359.67C437.101 368.607 439.587 378.847 439.587 390.388C439.587 402.876 436.627 413.944 430.709 423.591C424.849 433.238 416.623 440.814 406.028 446.318C395.493 451.763 383.153 454.486 369.008 454.486ZM464.067 452V270.182H588.18V305.871H508.013V343.158H580.278V378.935H508.013V452H464.067Z" fill="#C4C4C4"/>
<mask id="path-2-inside-1_101_2" fill="white">
<rect x="302" y="93" width="296" height="150" rx="10"/>
</mask>
<rect x="302" y="93" width="296" height="150" rx="10" stroke="#C4C4C4" stroke-width="30" mask="url(#path-2-inside-1_101_2)"/>
<rect x="417" y="106" width="65" height="69" fill="#C4C4C4"/>
<path d="M449.934 208.914C449.544 209.275 448.941 209.268 448.559 208.899L398.545 160.559C397.895 159.931 398.347 158.831 399.251 158.841L500.297 159.917C501.202 159.926 501.63 161.036 500.966 161.65L449.934 208.914Z" fill="#C4C4C4"/>
<rect x="307" y="65" width="77" height="38" rx="5" stroke="#C4C4C4" stroke-width="10"/>
<rect x="312" y="90" width="67" height="8" fill="#009688"/>
<rect x="302" y="95" width="6" height="13" fill="#C4C4C4"/>
</svg>
