<?xml version="1.0" encoding="utf-8"?>
<!-- Svg Vector Icons : http://www.onlinewebfonts.com/icon -->
<!DOCTYPE svg PUBLIC "-//W3C//DTD SVG 1.1//EN" "http://www.w3.org/Graphics/SVG/1.1/DTD/svg11.dtd">
<svg version="1.1" xmlns="http://www.w3.org/2000/svg" xmlns:xlink="http://www.w3.org/1999/xlink" x="0px" y="0px" viewBox="0 0 1000 1000" enable-background="new 0 0 1000 1000" xml:space="preserve">
<metadata> Svg Vector Icons : http://www.onlinewebfonts.com/icon </metadata>
<g><g transform="translate(0.000000,511.000000) scale(0.100000,-0.100000)"><path d="M3733.7,4616.2c-763-170.8-1366.3-745.3-1630.3-1554.9c-84.3-261.7-122-514.6-122-831.8c0-712,246.2-1333,720.9-1809.9C3310-196.9,4152.9-356.6,4922.5-1.7C5721,368.7,6240.1,1244.8,6240.1,2229.6c0,1177.8-751.9,2191.4-1770,2386.6C4274.9,4653.9,3902.2,4653.9,3733.7,4616.2z"/><path d="M1766.2-928.9c-587.8-317.2-1129-625.5-1204.4-685.4c-157.5-124.2-334.9-354.9-399.2-525.7c-59.9-153-79.9-414.8-46.6-583.3c86.5-412.5,434.7-758.6,842.9-836.2c75.4-13.3,927.1-22.2,2355.6-22.2c2040.6,0,2238,2.2,2238,35.5c0,19.9,28.8,97.6,66.5,175.2c128.6,270.6,394.8,499.1,683.2,587.8c130.9,39.9,206.3,44.4,958.2,44.4c556.7,0,822.9,6.7,831.8,24.4c8.9,13.3,15.5,104.2,15.5,204c-2.2,332.7-113.1,572.3-381.5,820.7c-122,113.1-244,188.5-625.5,390.4c-259.5,137.5-760.8,410.4-1111.2,605.5l-638.8,354.9l-195.2-88.7c-700.9-326.1-1461.7-321.6-2124.9,15.5c-75.4,37.7-150.8,68.8-166.4,66.5C2848.7-347.8,2354-609.5,1766.2-928.9z"/><path d="M6626-3317.7c-39.9-11.1-117.6-53.2-177.4-90.9c-197.4-133.1-279.5-392.6-204.1-643.2c33.3-113.1,170.8-268.4,290.6-326.1c95.4-46.6,122-46.6,1514.9-46.6c1377.4,0,1419.6,2.2,1517.2,46.6c264,119.8,392.6,405.9,306.1,689.8c-33.3,110.9-173,270.6-292.8,334.9c-90.9,48.8-93.1,48.8-1488.3,53.2C7289.2-3297.8,6665.9-3304.4,6626-3317.7z"/></g></g>
</svg>