<svg version="1.2" xmlns="http://www.w3.org/2000/svg" viewBox="0 0 96 107" width="96" height="107"><defs><clipPath clipPathUnits="userSpaceOnUse" id="cp1"><path d="m-1083-128h2456v1807h-2456z"/></clipPath></defs><style>.a{fill:#d07012}.b{fill:#ffad5d}.c{fill:#a75402}</style><g clip-path="url(#cp1)"><path class="a" d="m95.8 106.4h-81.8v-106.4h56.2l25.6 25.3z"/><path class="b" d="m92.3 28.1h-24.3v-24.1z"/><rect class="c" x="0" y="16" width="55" height="28" rx="4"></rect><path fill-rule="evenodd" class="b" d="m27.4 33.4h-4.7l-0.8 2.6h-2.8l4.7-12.8h2.5l4.8 12.8h-2.8zm-4-2.1h3.2l-1.6-4.8zm10.9 4.7h-2.5v-9.5h2.5zm-2.7-11.9q0-0.6 0.4-1 0.4-0.3 1-0.3 0.7 0 1.1 0.3 0.4 0.4 0.4 1 0 0.5-0.4 0.9-0.4 0.4-1.1 0.4-0.6 0-1-0.4-0.4-0.4-0.4-0.9z"/><path fill-rule="evenodd" class="b" d="m67 51q1.2 0 2.1 0.9 0.9 0.9 0.9 2.1 0 1.3-0.9 2.1-0.9 0.9-2.1 0.9-0.3 0-0.7-0.1-0.3-0.1-0.6-0.2l-7.4 7.4 0.7 0.9q1.6-1 3.4-1.7 1.8-0.7 3.7-1.2 1.9-0.6 3.8-0.8 2-0.3 4.1-0.3l2 0.1v4l-2-0.1q-1.9 0-3.8 0.3-1.9 0.3-3.6 0.8-1.8 0.5-3.5 1.2-1.6 0.8-3.1 1.8 0 1.6-0.6 3.1-0.7 1.4-1.7 2.5-1.1 1-2.5 1.7-1.5 0.6-3.1 0.6-1 1.5-1.8 3.1-0.7 1.7-1.2 3.5-0.5 1.7-0.8 3.6-0.3 1.9-0.3 3.8l0.1 2h-4l-0.1-2q0-2.1 0.3-4.1 0.2-1.9 0.8-3.8 0.5-1.9 1.2-3.7 0.7-1.8 1.7-3.4l-0.9-0.7-7.4 7.4q0.1 0.3 0.2 0.6 0.1 0.4 0.1 0.7 0 1.2-0.9 2.1-0.8 0.9-2.1 0.9-1.2 0-2.1-0.9-0.9-0.9-0.9-2.1 0-1.3 0.9-2.1 0.9-0.9 2.1-0.9 0.3 0 0.7 0.1 0.3 0 0.6 0.2l7.4-7.4q-0.8-1-1.3-2.3-0.4-1.2-0.4-2.6 0-1.7 0.6-3.1 0.6-1.5 1.7-2.6 1.1-1.1 2.6-1.7 1.4-0.6 3.1-0.6 1.4 0 2.6 0.4 1.3 0.5 2.3 1.3l7.4-7.4q-0.2-0.3-0.2-0.6-0.1-0.4-0.1-0.7 0-1.2 0.9-2.1 0.8-0.9 2.1-0.9zm-15 14q-1.7 0-2.8 1.2-1.2 1.1-1.2 2.8 0 1.7 1.2 2.8 1.1 1.2 2.8 1.2 1.7 0 2.8-1.2 1.2-1.1 1.2-2.8 0-1.7-1.2-2.8-1.1-1.2-2.8-1.2z"/></g></svg>