<svg version="1.2" xmlns="http://www.w3.org/2000/svg" viewBox="0 0 96 107" width="96" height="107"><defs><clipPath clipPathUnits="userSpaceOnUse" id="cp1"><path d="m-1221-564h2456v1807h-2456z"/></clipPath></defs><style>.a{fill:#79a92e}.b{fill:#99cd48}.c{fill:#658c28}</style><g clip-path="url(#cp1)"><path class="a" d="m95.8 106.4h-81.8v-106.4h56.2l25.6 25.3z"/><path class="b" d="m92.3 27.1h-24.3v-24.1z"/><rect class="c" x="0" y="16" width="55" height="28" rx="4"></rect><path fill-rule="evenodd" class="b" d="m21.2 32.7q-0.2 2.1-1.5 3.3-1.4 1.2-3.7 1.2-2.4 0-3.8-1.7-1.4-1.6-1.4-4.5v-0.8q0-1.9 0.6-3.3 0.7-1.4 1.9-2.1 1.2-0.8 2.8-0.8 2.2 0 3.5 1.2 1.4 1.2 1.6 3.3h-2.6q-0.1-1.2-0.7-1.8-0.6-0.5-1.8-0.5-1.3 0-2 0.9-0.7 1-0.7 3v0.9q0 2.1 0.7 3.1 0.6 0.9 1.9 0.9 1.3 0 1.9-0.5 0.6-0.6 0.7-1.8zm7.9 0.9q0-0.7-0.5-1.1-0.6-0.4-1.9-0.8-1.4-0.5-2.2-0.9-2.2-1.2-2.2-3.2 0-1 0.6-1.8 0.6-0.9 1.7-1.3 1.1-0.5 2.4-0.5 1.4 0 2.5 0.5 1 0.5 1.6 1.4 0.6 0.9 0.6 2.1h-2.6q0-0.9-0.6-1.4-0.5-0.5-1.5-0.5-1 0-1.5 0.4-0.6 0.4-0.6 1.1 0 0.6 0.7 1.1 0.6 0.4 1.8 0.8 2.3 0.6 3.3 1.6 1 1 1 2.5 0 1.7-1.2 2.6-1.3 1-3.4 1-1.5 0-2.7-0.6-1.2-0.5-1.8-1.4-0.7-1-0.7-2.2h2.7q0 2.1 2.5 2.1 0.9 0 1.5-0.4 0.5-0.4 0.5-1.1zm8.7 0.2l2.9-9.6h2.9l-4.4 12.8h-2.8l-4.4-12.8h2.9z"/><path class="b" d="m73.6 64.1h-3.6l-10.6 8.9 10.6 8.9h3.6v7.1h-14.2v-7.1h3.5l-7.1-6-7.1 6h3.5v7.1h-14.2v-7.1h3.6l10.6-8.9-10.6-8.9h-3.6v-7.1h14.2v7.1h-3.5l7.1 6 7.1-6h-3.5v-7.1h14.2z"/></g></svg>