<svg version="1.2" xmlns="http://www.w3.org/2000/svg" viewBox="0 0 96 107" width="96" height="107"><defs><clipPath clipPathUnits="userSpaceOnUse" id="cp1"><path d="m-1508-128h2456v1807h-2456z"/></clipPath></defs><style>.a{fill:#8b194d}.b{fill:#ff2c8e}.c{fill:#5e1034}.d{fill:#ff2f8f}</style><g clip-path="url(#cp1)"><path class="a" d="m95.8 106.4h-81.8v-106.4h56.2l25.6 25.3z"/><path class="b" d="m92.3 28.1h-24.3v-24.1z"/><rect class="c" x="0" y="16" width="55" height="28" rx="4"></rect><path fill-rule="evenodd" class="d" d="m16.9 37h-2.6v-12.8h2.6zm12.5 0h-2.7l-5.1-8.4v8.4h-2.6v-12.8h2.6l5.1 8.4v-8.4h2.7zm1.8 0v-12.8h4q1.7 0 3 0.8 1.3 0.7 2.1 2.1 0.7 1.4 0.7 3.2v0.6q0 1.8-0.7 3.2-0.8 1.4-2.1 2.1-1.3 0.8-3 0.8zm2.6-10.7v8.6h1.3q1.6 0 2.4-1 0.8-1 0.8-2.9v-0.7q0-1.9-0.8-2.9-0.8-1.1-2.4-1.1z"/><path fill-rule="evenodd" class="b" d="m68.3 53v20.4l-9.3 8.3v-20.4zm-25.8 5.7q-1.4 0.2-2.7 0.5-1.4 0.3-2.6 0.8-1.2 0.6-2.2 1.4v27.1q0 0.3 0.3 0.6 0.3 0.3 0.6 0.3 0.2 0 0.3-0.1 0.1 0 0.2 0 1.9-1 4.3-1.5 2.5-0.6 4.5-0.6 1.3 0 2.7 0.2 1.4 0.1 2.7 0.5 1.3 0.3 2.6 0.8 1.2 0.6 2.2 1.3 0.9-0.6 2.2-1.1 1.2-0.5 2.6-0.9 1.4-0.3 2.8-0.6 1.4-0.2 2.6-0.2 2.2 0 4.5 0.5 2.3 0.5 4.2 1.5 0.2 0.1 0.3 0.1 0.1 0 0.2 0 0.4 0 0.6-0.3 0.3-0.3 0.3-0.7v-26.9q-0.8-0.7-1.7-1.1-0.9-0.4-2-0.8v25q-1.5-0.5-3.1-0.7-1.7-0.3-3.3-0.3-1.2 0-2.6 0.3-1.4 0.2-2.8 0.5-1.4 0.4-2.6 0.9-1.3 0.5-2.2 1.1v-24.9q-1-0.8-2.2-1.4-1.3-0.5-2.6-0.8-1.3-0.3-2.7-0.5-1.4-0.1-2.7-0.1-1.4 0-2.7 0.1z"/></g></svg>