<svg version="1.2" xmlns="http://www.w3.org/2000/svg" viewBox="0 0 96 107" width="96" height="107"><defs><clipPath clipPathUnits="userSpaceOnUse" id="cp1"><path d="m-2106-128h2456v1807h-2456z"/></clipPath></defs><style>.a{fill:#082531}.b{fill:#a7cfe9}</style><g clip-path="url(#cp1)"><path class="a" d="m95.8 106.4h-81.8v-106.4h56.2l25.6 25.3z"/><path class="b" d="m92.3 28.1h-24.3v-24.1z"/><rect  y="16" width="55" height="28" rx="4"></rect><path fill-rule="evenodd" class="b" d="m19.8 34.9h5.6v2.1h-8.3v-12.8h2.7zm11.4-2.6h-2.1v4.7h-2.6v-12.8h4.7q2.3 0 3.5 1 1.2 1 1.2 2.9 0 1.3-0.5 2.2-0.6 0.9-1.7 1.4l2.7 5.2v0.1h-2.8zm-2.1-2.1h2.1q1 0 1.6-0.5 0.5-0.5 0.5-1.4 0-0.9-0.5-1.4-0.5-0.6-1.6-0.6h-2.1z"/><path fill-rule="evenodd" class="b" d="m55 52q2.9 0 5.5 1.1 2.5 1.1 4.4 3 1.9 1.9 3 4.4 1.1 2.6 1.1 5.5 0 1.8-0.4 3.4-0.4 1.7-1.2 3.2-0.8 1.4-1.9 2.7-1.1 1.2-2.5 2.2v4.5q0 0.8-0.6 1.4-0.6 0.6-1.4 0.6h-12q-0.8 0-1.4-0.6-0.6-0.6-0.6-1.4v-4.5q-1.4-1-2.4-2.2-1.1-1.3-1.9-2.7-0.8-1.5-1.3-3.2-0.4-1.6-0.4-3.4 0-2.9 1.1-5.5 1.1-2.5 3-4.4 1.9-1.9 4.5-3 2.5-1.1 5.4-1.1zm-6 38v-2h12v2q0 0.8-0.6 1.4-0.6 0.6-1.4 0.6h-8q-0.8 0-1.4-0.6-0.6-0.6-0.6-1.4zm6-34q-2 0-3.9 0.8-1.8 0.8-3.2 2.1-1.3 1.4-2.1 3.2-0.8 1.8-0.8 3.9 0 1.5 0.4 2.9 0.5 1.5 1.3 2.6 0.8 1.2 1.9 2.1 1.1 1 2.4 1.6v4.8h8v-4.8q1.3-0.6 2.4-1.6 1.2-0.9 1.9-2.1 0.8-1.1 1.3-2.6 0.4-1.4 0.4-2.9 0-2.1-0.8-3.9-0.8-1.8-2.1-3.2-1.4-1.3-3.2-2.1-1.8-0.8-3.9-0.8z"/></g></svg>