<svg version="1.2" xmlns="http://www.w3.org/2000/svg" viewBox="0 0 96 107" width="96" height="107"><defs><clipPath clipPathUnits="userSpaceOnUse" id="cp1"><path d="m-947-564h2456v1807h-2456z"/></clipPath></defs><style>tspan{white-space:pre}.a{fill:#c61716}.b{fill:#ff7f7f}.c{fill:#9f1312}.d{font-size: 18px;fill: #ff7f7f;font-weight: 700;font-family: "Roboto-Bold", "Roboto"}</style><g clip-path="url(#cp1)"><path class="a" d="m95.8 106.4h-81.8v-106.4h56.2l25.6 25.3z"/><path class="b" d="m92.3 28.1h-24.3v-24.1z"/><rect class="c" x="0" y="16" width="55" height="28" rx="4"></rect><text style="transform:matrix(1,0,0,1,11,25.3)" ><tspan x="0" y="13.5" class="d" dx="0 0 0 0" >PDF
</tspan></text><path fill-rule="evenodd" class="b" d="m52.7 71.2q0.9 2.1 2.2 3.8 1.2 1.7 2.6 2.9l1.3 1q-2.1 0.4-4.8 1.1-2.7 0.7-5.7 1.8l-0.3 0.2 1.5-3.3q1.1-2 1.9-3.9 0.8-1.9 1.3-3.6zm19.2 12.7q-0.7 0.2-1.7 0.2-1.8 0-4.4-0.6-2.6-0.5-5-1.8-4.1 0.5-7.2 1.1-3 0.5-5.5 1.3l-0.6 0.2q-2.9 5.1-5.1 7.4-2.3 2.3-4.2 2.3l-1.4-0.4-1.5-0.9-0.1-0.2q-0.2-0.4-0.2-0.8 0-0.5 0.1-0.9 0.2-1.2 1.6-3 1.4-1.9 4.2-3.6l2.9-1.6 3-5.7q1.2-2.4 2-4.7 0.8-2.4 1.4-4.4v-0.1q-0.9-2.9-1.2-5-0.4-2.1 0.5-5.3 0.2-0.9 0.9-1.6 0.7-0.8 1.6-0.8h0.7q0.6 0 1.1 0.2 0.5 0.2 0.8 0.6 1.6 1.5 1.2 4.8-0.3 3.3-1.1 6.5l-0.1 0.4q0.9 2.7 2.2 4.8 1.3 2 2.8 3.2l2.7 1.9 4.1-0.2q2.9 0 4.7 0.5 1.8 0.6 2.4 1.7 0.3 0.3 0.4 0.7 0.1 0.5 0 1 0 0.6-0.2 1.1-0.2 0.5-0.7 0.9-0.3 0.5-1.1 0.8zm-1.6-3.7q-1.2-0.4-4.5-0.4-0.2 0-0.4 0.1-0.1 0-0.3 0.2 1.7 0.8 3.3 1.2 1.5 0.4 2.7 0.4h0.6 0.1q0.1-0.1 0.2-0.1 0-0.1 0-0.4l-0.2-0.3q-0.3-0.2-1.5-0.7zm-28.9 6.3q-1.6 1.5-2.6 2.9-1.1 1.5-1.2 2.4 1.1-0.4 2.5-1.9 1.3-1.6 2.8-4.4zm11.2-22.8l0.5-2.6 0.1-0.5q0.2-1.3 0.2-2.1-0.1-0.8-0.5-1.4l-0.5-0.1-0.2 0.3q-0.4 1-0.4 2.7 0.1 1.7 0.6 3.8z"/></g></svg>