<svg version="1.2" xmlns="http://www.w3.org/2000/svg" viewBox="0 0 96 107" width="96" height="107"><defs><clipPath clipPathUnits="userSpaceOnUse" id="cp1"><path d="m-2107-564h2456v1807h-2456z"/></clipPath></defs><style>.a{fill:#11907c}.b{fill:#37d2ba}.c{fill:#0d6254}</style><g clip-path="url(#cp1)"><path class="a" d="m95.8 106.4h-81.8v-106.4h56.2l25.6 25.3z"/><path class="b" d="m92.3 28.1h-24.3v-24.1z"/><rect class="c" y="16" width="55" height="28" rx="4"></rect><path fill-rule="evenodd" class="b" d="m13.6 31.7v4.3h-2.5v-12.1h4.7q1.4 0 2.4 0.5 1 0.5 1.6 1.4 0.5 0.9 0.5 2.1 0 1.8-1.2 2.8-1.2 1-3.3 1zm0-2h2.2q1 0 1.5-0.4 0.5-0.5 0.5-1.4 0-0.9-0.5-1.4-0.5-0.6-1.5-0.6h-2.2zm17.8 6.3h-2.5v-5.2h-4.8v5.2h-2.5v-12.1h2.5v4.9h4.8v-4.9h2.5zm4.3-4.2v4.2h-2.5v-12.1h4.7q1.4 0 2.4 0.5 1 0.5 1.6 1.4 0.5 1 0.5 2.1 0 1.8-1.2 2.8-1.2 1.1-3.4 1.1zm0-2.1h2.3q1 0 1.5-0.4 0.5-0.5 0.5-1.3 0-0.9-0.5-1.5-0.5-0.5-1.5-0.5h-2.3z"/><path fill-rule="evenodd" class="b" d="m48 57l5.7 5.6-9.4 9.4 9.4 9.3-5.7 5.7-15-15zm14.7 29.9l-5.7-5.7 9.4-9.2-9.4-9.4 5.7-5.6 15 15z"/></g></svg>