<svg version="1.2" xmlns="http://www.w3.org/2000/svg" viewBox="0 0 96 107" width="96" height="107"><defs><clipPath clipPathUnits="userSpaceOnUse" id="cp1"><path d="m-2106-996h2456v1807h-2456z"/></clipPath></defs><style>tspan{white-space:pre}.a{fill:#cba610}.b{fill:#f3ce38}.c{fill:#af8f0e}.d{font-size: 18px;fill: #f3ce38;font-weight: 700;font-family: "Roboto-Bold", "Roboto"}</style><g clip-path="url(#cp1)"><path class="a" d="m95.8 106.4h-81.8v-106.4h56.2l25.6 25.3z"/><path class="b" d="m92.3 28.1h-24.3v-24.1z"/><rect class="c" y="16" width="55" height="28" rx="4"></rect><text style="transform:matrix(1,0,0,1,9,26.3)" ><tspan x="0" y="13.5" class="d" dx="0 0 0 0" >PNG
</tspan></text><path fill-rule="evenodd" class="b" d="m53 83l7-9 9 12h-28l7-9zm20-23q0-1.7-1.2-2.9-1.1-1.1-2.8-1.1h-28q-1.6 0-2.8 1.2-1.2 1.1-1.2 2.8v28q0 1.6 1.2 2.8 1.2 1.2 2.8 1.2h28q1.7 0 2.8-1.2 1.2-1.2 1.2-2.8z"/></g></svg>