<svg version="1.2" xmlns="http://www.w3.org/2000/svg" viewBox="0 0 96 107" width="96" height="107"><defs><clipPath clipPathUnits="userSpaceOnUse" id="cp1"><path d="m-1510-852h2456v1807h-2456z"/></clipPath></defs><style>tspan{white-space:pre}.a{fill:#e6541d}.b{fill:#ffa684}.c{fill:#ba3c0d}.d{font-size: 18px;fill: #ffa684;font-weight: 700;font-family: "Roboto-Bold", "Roboto"}</style><g clip-path="url(#cp1)"><path class="a" d="m95.8 106.4h-81.8v-106.4h56.2l25.6 25.3z"/><path class="b" d="m92.3 28.1h-24.3v-24.1z"/><rect class="c" x="0" y="16" width="55" height="28" rx="4"></rect><text style="transform:matrix(1,0,0,1,5,26.3)" ><tspan x="0" y="13.5" class="d" dx="0 0 0 0 0" >PPTX
</tspan></text><path fill-rule="evenodd" class="b" d="m73 70h-16v-16q3.3 0 6.2 1.2 2.9 1.3 5.1 3.5 2.2 2.2 3.4 5.1 1.3 2.9 1.3 6.2zm-18.8 4l7.7 13.3q1.6-1.1 2.9-2.5 1.3-1.4 2.2-3.1 1-1.8 1.5-3.7 0.5-1.9 0.5-4zm2.5 15.6q1.9-0.5 3.4-1.3l-7.4-13-13 7.6q1.1 1.5 2.5 2.9 1.4 1.3 3.2 2.2 1.7 1 3.6 1.5 1.9 0.5 4 0.5 1.9 0 3.7-0.4zm-19.2-11.9q0.4 1.8 1.2 3.4l14.3-8.3v-14.8q-3.3 0-6.2 1.2-2.9 1.3-5.1 3.5-2.2 2.1-3.4 5-1.3 3-1.3 6.3 0 1.9 0.5 3.7z"/></g></svg>