<svg version="1.2" xmlns="http://www.w3.org/2000/svg" viewBox="0 0 96 107" width="96" height="107"><defs><clipPath clipPathUnits="userSpaceOnUse" id="cp1"><path d="m-1361-128h2456v1807h-2456z"/></clipPath></defs><style>.a{fill:#51295a}.b{fill:#eb7aff}.c{fill:#2c0050}.d{fill:#e171fb}</style><g clip-path="url(#cp1)"><path class="a" d="m95.8 106.4h-81.8v-106.4h56.2l25.6 25.3z"/><path class="b" d="m92.3 28.1h-24.3v-24.1z"/><rect class="c" y="16" width="55" height="28" rx="4"></rect><path fill-rule="evenodd" class="d" d="m8.6 31.7v4.3h-2.5v-12.1h4.7q1.4 0 2.4 0.5 1 0.5 1.6 1.4 0.5 0.9 0.5 2.1 0 1.8-1.2 2.8-1.2 1-3.3 1zm0-5.8h2.2q1 0 1.5 0.6 0.5 0.5 0.5 1.4 0 0.9-0.5 1.4-0.5 0.4-1.5 0.4h-2.2zm14.8 10.1h2.6v-0.1l-2.6-5q1.1-0.5 1.6-1.3 0.6-0.8 0.6-2 0-1.8-1.2-2.7-1.1-1-3.3-1h-4.5v12.1h2.5v-4.4h2zm-4.3-10.1h2q1 0 1.5 0.5 0.5 0.5 0.5 1.3 0 0.9-0.5 1.4-0.5 0.4-1.4 0.4h-2.1zm15.3 2.9h-4.8v-2.9h5.6v-2h-8.1v12.1h8.1v-2h-5.6v-3.2h4.8zm1.8-4.9v12h2.5v-3.3l-0.2-5.7 3.2 9h1.8l3.2-9-0.2 5.7v3.3h2.5v-12h-3.3l-3.1 8.7-3.1-8.7z"/><path class="d" d="m75 61v22l-8-8v7q0 0.9-0.6 1.4-0.6 0.6-1.4 0.6h-24q-0.8 0-1.4-0.6-0.6-0.5-0.6-1.4v-20q0-0.8 0.6-1.4 0.6-0.6 1.4-0.6h24q0.8 0 1.4 0.6 0.6 0.6 0.6 1.4v7z"/></g></svg>