<svg version="1.2" xmlns="http://www.w3.org/2000/svg" viewBox="0 0 96 107" width="96" height="107"><defs><clipPath clipPathUnits="userSpaceOnUse" id="cp1"><path d="m-947-274h2456v1807h-2456z"/></clipPath></defs><style>.a{fill:#003c4a}.b{fill:#00cbff}.c{fill:#002c36}</style><g clip-path="url(#cp1)"><path class="a" d="m95.8 106.4h-81.8v-106.4h56.2l25.6 25.3z"/><path class="b" d="m92.3 28.1h-24.3v-24.1z"/><rect class="c" x="0" y="16" width="55" height="28" rx="4"></rect><path fill-rule="evenodd" class="b" d="m15.8 32.5v4.5h-2.7v-12.8h5q1.5 0 2.6 0.5 1.1 0.6 1.7 1.5 0.5 1 0.5 2.2 0 1.9-1.2 3-1.3 1.1-3.6 1.1zm0-2.1h2.3q1.1 0 1.6-0.5 0.6-0.5 0.6-1.4 0-1-0.6-1.6-0.5-0.5-1.5-0.6h-2.4zm15.2 3.3q0-0.7-0.6-1.1-0.5-0.4-1.9-0.9-1.3-0.4-2.1-0.8-2.2-1.2-2.2-3.2 0-1 0.6-1.9 0.6-0.8 1.7-1.2 1-0.5 2.4-0.5 1.4 0 2.5 0.5 1 0.5 1.6 1.4 0.6 0.9 0.6 2.1h-2.6q0-0.9-0.6-1.4-0.5-0.5-1.5-0.5-1 0-1.5 0.4-0.6 0.4-0.6 1.1 0 0.6 0.7 1 0.6 0.5 1.8 0.8 2.3 0.7 3.3 1.7 1 1 1 2.5 0 1.7-1.2 2.6-1.3 1-3.4 1-1.5 0-2.7-0.6-1.2-0.5-1.9-1.5-0.6-0.9-0.6-2.1h2.6q0 2.1 2.6 2.1 0.9 0 1.4-0.4 0.6-0.4 0.6-1.1zm4 3.4v-12.8h3.9q1.7 0 3 0.7 1.4 0.8 2.1 2.2 0.7 1.4 0.7 3.2v0.6q0 1.8-0.7 3.2-0.7 1.3-2.1 2.1-1.3 0.8-3 0.8zm2.7-10.7v8.6h1.2q1.6 0 2.4-1 0.8-1.1 0.8-2.9v-0.7q0-2-0.8-3-0.8-1-2.3-1z"/><path class="b" d="m73 56v16h-16v18q0 0.8-0.6 1.4-0.6 0.6-1.4 0.6h-4q-0.9 0-1.4-0.6-0.6-0.6-0.6-1.4v-22h20v-8h-2v2q0 0.8-0.6 1.4-0.6 0.6-1.4 0.6h-24q-0.8 0-1.4-0.6-0.6-0.6-0.6-1.4v-8q0-0.8 0.6-1.4 0.6-0.6 1.4-0.6h24q0.8 0 1.4 0.6 0.6 0.6 0.6 1.4v2z"/></g></svg>