<svg version="1.2" xmlns="http://www.w3.org/2000/svg" viewBox="0 0 96 107" width="96" height="107"><defs><clipPath clipPathUnits="userSpaceOnUse" id="cp1"><path d="m-1806-274h2456v1807h-2456z"/></clipPath></defs><style>.a{fill:#a63a3d}.b{fill:#eb6d71}.c{fill:#5c1c1e}</style><g clip-path="url(#cp1)"><path class="a" d="m95.8 106.4h-81.8v-106.4h56.2l25.6 25.3z"/><path class="b" d="m92.3 28.1h-24.3v-24.1z"/><rect class="c" x="0" y="16" width="55" height="28" rx="4"></rect><path fill-rule="evenodd" class="b" d="m19.3 32.8q0-0.7-0.5-1.1-0.5-0.3-1.7-0.8-1.3-0.4-2.1-0.8-2.1-1.1-2.1-3 0-1 0.6-1.7 0.6-0.8 1.6-1.2 1-0.5 2.3-0.5 1.3 0 2.3 0.5 1 0.5 1.6 1.3 0.5 0.9 0.5 2h-2.4q0-0.8-0.6-1.3-0.5-0.5-1.4-0.5-1 0-1.5 0.4-0.5 0.4-0.5 1 0 0.6 0.6 1 0.6 0.4 1.8 0.8 2.1 0.6 3.1 1.6 0.9 0.9 0.9 2.3 0 1.6-1.1 2.5-1.2 0.9-3.2 0.9-1.4 0-2.6-0.5-1.1-0.6-1.7-1.4-0.6-0.9-0.6-2.1h2.5q0 2 2.4 2 0.9 0 1.3-0.4 0.5-0.3 0.5-1zm13.7-2.6q0 1.7-0.5 3-0.6 1.2-1.6 2l2.1 1.6-1.6 1.4-2.6-2.1q-0.4 0.1-0.9 0.1-1.5 0-2.7-0.8-1.2-0.7-1.8-2-0.7-1.4-0.7-3.1v-0.6q0-1.8 0.7-3.1 0.6-1.4 1.8-2.1 1.2-0.8 2.7-0.8 1.5 0 2.6 0.8 1.2 0.7 1.9 2.1 0.6 1.3 0.6 3.1zm-2.5-0.6q0-1.9-0.7-2.8-0.7-1-1.9-1-1.3 0-2 0.9-0.7 1-0.7 2.9v0.6q0 1.8 0.7 2.9 0.7 1 2 1 1.2 0 1.9-1 0.7-1 0.7-2.9zm6.4 4.3h5.3v2h-7.8v-12h2.5z"/><path fill-rule="evenodd" class="b" d="m37 50h32q0.8 0 1.4 0.6 0.6 0.6 0.6 1.4v8q0 0.8-0.6 1.4-0.6 0.6-1.4 0.6h-32q-0.8 0-1.4-0.6-0.6-0.6-0.6-1.4v-8q0-0.8 0.6-1.4 0.6-0.6 1.4-0.6zm0 16h32q0.8 0 1.4 0.6 0.6 0.6 0.6 1.4v1.3l-5-2.2-13 5.8v5.1h-16q-0.8 0-1.4-0.6-0.6-0.6-0.6-1.4v-8q0-0.8 0.6-1.4 0.6-0.6 1.4-0.6zm0 16h16q0 1.7 0.4 3.3 0.4 1.6 1 3.2 0.6 1.5 1.5 2.9 0.9 1.4 2 2.6h-20.9q-0.8 0-1.4-0.6-0.6-0.6-0.6-1.4v-8q0-0.8 0.6-1.4 0.6-0.6 1.4-0.6zm10-24h2v-4h-2zm0 16h2v-4h-2zm0 16h2v-4h-2zm-8-36v4h4v-4zm0 16v4h4v-4zm0 16v4h3.9v-4zm27-14l9 4v6q0 2.1-0.7 4-0.6 2-1.9 3.6-1.2 1.6-2.8 2.8-1.6 1.1-3.6 1.6-1.9-0.5-3.6-1.6-1.6-1.2-2.8-2.8-1.2-1.6-1.9-3.6-0.7-1.9-0.7-4v-6zm0 3.9l-5 2.2v5.3q0 2.3 1.4 4.3 1.5 1.9 3.6 2.4z"/></g></svg>