<svg version="1.2" xmlns="http://www.w3.org/2000/svg" viewBox="0 0 96 107" width="96" height="107"><defs><clipPath clipPathUnits="userSpaceOnUse" id="cp1"><path d="m-1222-274h2456v1807h-2456z"/></clipPath></defs><style>.a{fill:#d07012}.b{fill:#ffad5d}.c{fill:#a75402}</style><g clip-path="url(#cp1)"><path class="a" d="m95.8 106.4h-81.8v-106.4h56.2l25.6 25.3z"/><path class="b" d="m92.3 28.1h-24.3v-24.1z"/><rect class="c" x="0" y="16" width="55" height="28" rx="4"></rect><path fill-rule="evenodd" class="b" d="m17.8 33.6q0-0.7-0.5-1.1-0.6-0.4-1.9-0.8-1.4-0.5-2.2-0.9-2.2-1.2-2.2-3.2 0-1 0.6-1.8 0.6-0.9 1.7-1.3 1.1-0.5 2.4-0.5 1.4 0 2.5 0.5 1 0.5 1.6 1.4 0.6 0.9 0.6 2.1h-2.6q0-0.9-0.6-1.4-0.5-0.5-1.5-0.5-1 0-1.5 0.4-0.6 0.4-0.6 1.1 0 0.6 0.7 1.1 0.6 0.4 1.8 0.8 2.3 0.6 3.3 1.6 1 1 1 2.5 0 1.7-1.2 2.6-1.3 1-3.4 1-1.5 0-2.7-0.6-1.2-0.5-1.9-1.4-0.6-1-0.6-2.2h2.7q0 2.1 2.5 2.1 0.9 0 1.5-0.4 0.5-0.4 0.5-1.1zm5.8-9.4h-2.9l4.4 12.8h2.8l4.4-12.8h-2.9l-2.9 9.6zm19.5 6.1h-5v1.9h2.4v2.2q-0.7 0.7-2.1 0.7-1.5 0-2.3-1-0.8-1.1-0.8-3.1v-0.8q0.1-2 0.8-3 0.7-1 2-1 1.1 0 1.7 0.5 0.6 0.5 0.7 1.6h2.6q-0.2-2.1-1.5-3.2-1.3-1-3.6-1-1.6 0-2.8 0.7-1.2 0.7-1.9 2.1-0.6 1.4-0.6 3.4v0.8q0 1.9 0.7 3.3 0.6 1.3 1.9 2.1 1.2 0.7 2.9 0.7 1.6 0 2.9-0.5 1.3-0.4 2-1.3z"/><path fill-rule="evenodd" class="b" d="m48 57l5.7 5.6-9.4 9.4 9.4 9.3-5.7 5.7-15-15zm29.7 15l-15-15-5.7 5.6 9.4 9.4-9.4 9.2 5.7 5.7z"/></g></svg>