<svg version="1.2" xmlns="http://www.w3.org/2000/svg" viewBox="0 0 96 108" width="96" height="108"><defs><clipPath clipPathUnits="userSpaceOnUse" id="cp1"><path d="m-2261-419h2456v1807h-2456z"/></clipPath></defs><style>tspan{white-space:pre}.a{fill:#1c5da4}.b{fill:#7bb6f6}.c{fill:#2c7acd}.d{font-size: 17px;fill: #69a5f3;font-weight: 700;font-family: "Roboto-Bold", "Roboto"}</style><g clip-path="url(#cp1)"><path class="a" d="m95.8 107.4h-81.8v-106.4h56.2l25.6 25.3z"/><path class="b" d="m92.1 28.6h-24.3v-24.1z"/><rect class="c" y="17" width="55" height="28" rx="4"></rect><text style="transform:matrix(1,0,0,1,12,26.95)" ><tspan x="0" y="12.8" class="d" dx="0 0 0 0" >TXT
</tspan></text><path class="b" d="m68.3 59l2.3 8.7-1.9 0.5q-0.6-1.3-1.3-2.5-0.8-1.2-1.6-1.8-0.8-0.7-1.7-0.8-0.9-0.1-1.8-0.1h-5v21q0 0.7 0.1 1.4 0.1 0.7 0.6 1.1 0.5 0.3 1.4 0.4 0.9 0.1 1.9 0.1v2h-12v-2q1 0 1.9-0.1 0.9-0.1 1.5-0.4 0.4-0.4 0.5-1.1 0.1-0.7 0.1-1.4v-21h-5q-0.9 0-1.8 0.1-0.9 0.1-1.7 0.8-0.8 0.6-1.5 1.8-0.7 1.2-1.4 2.5l-1.9-0.5 2.3-8.7z"/></g></svg>