<svg version="1.2" xmlns="http://www.w3.org/2000/svg" viewBox="0 0 96 107" width="96" height="107"><defs><clipPath clipPathUnits="userSpaceOnUse" id="cp1"><path d="m-2261-564h2456v1807h-2456z"/></clipPath></defs><style>.a{fill:#11907c}.b{fill:#37d2ba}.c{fill:#0d6254}</style><g clip-path="url(#cp1)"><path class="a" d="m95.8 106.4h-81.8v-106.4h56.2l25.6 25.3z"/><path class="b" d="m92.3 28.1h-24.3v-24.1z"/><rect class="c" y="16" width="55" height="28" rx="4"></rect><path fill-rule="evenodd" class="b" d="m22.2 23.9v8q0 2-1.2 3.1-1.3 1.2-3.4 1.2-2.1 0-3.4-1.2-1.2-1.1-1.2-3v-8.1h2.5v8q0 1.2 0.5 1.7 0.6 0.6 1.6 0.6 2.1 0 2.1-2.2v-8.1zm6.1 7.7h-2v4.4h-2.5v-12.1h4.5q2.2 0 3.3 1 1.2 0.9 1.2 2.7 0 1.2-0.5 2-0.6 0.9-1.7 1.3l2.7 5v0.1h-2.7zm-2-2h2q0.9 0 1.5-0.5 0.5-0.5 0.5-1.3 0-0.9-0.5-1.4-0.5-0.4-1.5-0.4h-2zm10.4 4.4h5.3v2h-7.8v-12.1h2.5z"/><path fill-rule="evenodd" class="b" d="m65.4 80.8q-1.1-0.8-2.4-0.8h-2v-6q0-0.8-0.6-1.4-0.6-0.6-1.4-0.6h-12v-4h4q0.8 0 1.4-0.6 0.6-0.6 0.6-1.4v-4h4q1.6 0 2.8-1.2 1.2-1.2 1.2-2.8v-0.8q2.2 0.8 4 2.3 1.9 1.5 3.2 3.5 1.3 1.9 2.1 4.2 0.7 2.3 0.7 4.8 0 1.6-0.3 3-0.3 1.5-0.8 2.9-0.6 1.3-1.4 2.6-0.7 1.2-1.7 2.3-0.4-1.2-1.4-2zm-17.9 5.3q-2.6-1.4-4.5-3.5-1.8-2.1-2.9-4.8-1.1-2.7-1.1-5.8 0-0.9 0.1-1.8 0.1-0.9 0.3-1.8l9.6 9.6v2q0 1.6 1.2 2.8 1.1 1.2 2.8 1.2v3.9q-3-0.4-5.5-1.8zm-0.3-32.5q-3.6 1.5-6.3 4.3-2.8 2.7-4.3 6.3-1.6 3.7-1.6 7.8 0 4.1 1.6 7.8 1.5 3.6 4.3 6.3 2.7 2.7 6.3 4.3 3.7 1.6 7.8 1.6 4.1 0 7.8-1.6 3.6-1.6 6.3-4.3 2.7-2.7 4.3-6.3 1.6-3.7 1.6-7.8 0-4.1-1.6-7.8-1.6-3.6-4.3-6.3-2.7-2.8-6.3-4.3-3.7-1.6-7.8-1.6-4.1 0-7.8 1.6z"/></g></svg>