<svg version="1.2" xmlns="http://www.w3.org/2000/svg" viewBox="0 0 96 107" width="96" height="107"><defs><clipPath clipPathUnits="userSpaceOnUse" id="cp1"><path d="m-1508-1140h2456v1807h-2456z"/></clipPath></defs><style>tspan{white-space:pre}.a{fill:#32373f}.b{fill:#d1d1d1}.c{font-size: 18px;fill: #d1d1d1;font-weight: 700;font-family: "Roboto-Bold", "Roboto"}</style><g clip-path="url(#cp1)"><path class="a" d="m95.8 106.4h-81.8v-106.4h56.2l25.6 25.3z"/><path class="b" d="m92.3 28.1h-24.3v-24.1z"/><rect  x="0" y="16" width="55" height="28" rx="4"></rect><text style="transform:matrix(1,0,0,1,7,26.3)" ><tspan x="0" y="13.5" class="c" dx="0 0 0 0" >WAV
</tspan></text><path fill-rule="evenodd" class="b" d="m57 66v11q0 2.1-1.5 3.5-1.4 1.5-3.5 1.5-2.1 0-3.6-1.5-1.4-1.4-1.4-3.5 0-2.1 1.4-3.5 1.5-1.5 3.6-1.5 0.9 0 1.6 0.3 0.8 0.2 1.4 0.7v-11h8v4zm-9.8-12.4q-3.6 1.5-6.4 4.3-2.7 2.7-4.3 6.3-1.5 3.7-1.5 7.8 0 4.1 1.5 7.8 1.6 3.6 4.3 6.3 2.8 2.7 6.4 4.3 3.6 1.6 7.8 1.6 4.1 0 7.7-1.6 3.7-1.6 6.4-4.3 2.7-2.7 4.3-6.3 1.6-3.7 1.6-7.8 0-4.1-1.6-7.8-1.6-3.6-4.3-6.3-2.7-2.8-6.4-4.3-3.6-1.6-7.7-1.6-4.2 0-7.8 1.6z"/></g></svg>