<svg version="1.2" xmlns="http://www.w3.org/2000/svg" viewBox="0 0 96 107" width="96" height="107"><defs><clipPath clipPathUnits="userSpaceOnUse" id="cp1"><path d="m-1086-708h2456v1807h-2456z"/></clipPath></defs><style>.a{fill:#11907c}.b{fill:#37d2ba}.c{fill:#0d6254}</style><g clip-path="url(#cp1)"><path class="a" d="m95.8 106.4h-81.8v-106.4h56.2l25.6 25.3z"/><path class="b" d="m92.3 28.1h-24.3v-24.1z"/><rect class="c" x="0" y="16" width="55" height="28" rx="4"></rect><path fill-rule="evenodd" class="b" d="m16.4 28.1l2.3-4.2h2.8l-3.5 6 3.6 6.1h-2.9l-2.3-4.2-2.3 4.2h-2.9l3.6-6.1-3.5-6h2.8zm9.3-4.2l3.1 8.8 3.1-8.8h3.3v12.1h-2.5v-3.3l0.2-5.7-3.2 9h-1.7l-3.3-9 0.3 5.7v3.3h-2.5v-12.1zm13.7 10.1h5.3v2h-7.8v-12.1h2.5z"/><path fill-rule="evenodd" class="b" d="m48 57l5.7 5.6-9.4 9.4 9.4 9.3-5.7 5.7-15-15zm29.7 15l-15-15-5.7 5.6 9.4 9.4-9.4 9.2 5.7 5.7z"/></g></svg>