<svg version="1.2" xmlns="http://www.w3.org/2000/svg" viewBox="0 0 99 114" width="99" height="114"><defs><clipPath clipPathUnits="userSpaceOnUse" id="cp1"><path d="m-947-416h2456v1807h-2456z"/></clipPath><filter x="-50%" y="-50%" width="200%" height="200%" id="f1" ><feDropShadow dx="0" dy="0" stdDeviation="0.8333333333333334" flood-color="#000000" flood-opacity=".5"/></filter></defs><style>.a{filter:url(#f1);fill:#fff}.b{fill:#585858}.c{fill:#fff}</style><g clip-path="url(#cp1)"><path class="a" d="m95.8 110.4h-81.8v-106.4h56.2l25.6 25.3z"/><path class="b" d="m92.3 32.1h-24.3v-24.1z"/><rect class="b" x="0" y="20" width="55" height="28" rx="4"></rect><path fill-rule="evenodd" class="c" d="m17.7 38h6.1v2h-9.2v-1.5l6-8.6h-6v-2h9.1v1.4zm9.9 2h-2.5v-12h2.5zm4.3-4.3v4.3h-2.5v-12.1h4.7q1.4 0 2.4 0.5 1.1 0.5 1.6 1.4 0.6 0.9 0.6 2.1 0 1.7-1.2 2.8-1.2 1-3.4 1zm0-2h2.2q1 0 1.5-0.5 0.6-0.4 0.6-1.3 0-0.9-0.6-1.4-0.5-0.6-1.4-0.6h-2.3z"/><path class="b" d="m52 75h7v3h-7z"/><path class="b" d="m52 63h7v3h-7z"/><path class="b" d="m52 53h7v3h-7z"/><path fill-rule="evenodd" class="b" d="m62 96.7c0 3.5-3.1 6.3-7 6.3-3.9 0-7-2.8-7-6.3 0-3.2 3.5-8 3.5-12.7h7c0 4.7 3.5 9.5 3.5 12.7zm-3.5 0c0-1.8-1.6-3.2-3.5-3.2-1.9 0-3.5 1.4-3.5 3.2 0 1.7 1.6 3.1 3.5 3.1 1.9 0 3.5-1.4 3.5-3.1z"/></g></svg>